<?xml version="1.0" standalone="no"?><!DOCTYPE svg PUBLIC "-//W3C//DTD SVG 1.1//EN" "http://www.w3.org/Graphics/SVG/1.1/DTD/svg11.dtd"><svg t="1720834456722" class="icon" viewBox="0 0 1024 1024" version="1.1" xmlns="http://www.w3.org/2000/svg" p-id="2071" xmlns:xlink="http://www.w3.org/1999/xlink" width="100" height="100"><path d="M0 0h1024v1024H0z" fill="#2054E5" p-id="2072"></path><path d="M599.509333 780.629333c-2.517333 1.792-5.546667 2.730667-8.618666 2.730667h-157.781334c-8.362667 0-15.189333-6.826667-15.189333-15.189333 0-3.114667 0.938667-6.144 2.730667-8.661334l78.848-113.749333a15.202133 15.202133 0 0 1 25.002666 0l78.848 113.749333c4.778667 6.869333 3.072 16.341333-3.84 21.12z" fill="#FFFFFF" opacity=".8" p-id="2073"></path><path d="M758.357333 270.506667H264.277333c-44.458667 0.768-79.616 39.082667-79.616 85.504v292.608c0.682667 46.250667 36.309333 84.096 80.981334 84.096h127.018666c13.269333 0 25.813333-6.314667 33.706667-16.981334l73.429333-99.114666 0.170667-0.213334a15.010133 15.010133 0 0 1 21.12-2.901333l0.298667 0.213333c1.066667 0.810667 2.005333 1.792 2.816 2.901334l73.429333 99.114666a41.9328 41.9328 0 0 0 33.706667 16.981334h128.384c44.458667-0.768 79.616-39.082667 79.616-85.504V354.602667c-0.682667-46.250667-36.309333-84.096-80.981334-84.096z m-145.237333 293.290666c-6.144 7.04-16.810667 16.298667-23.808 10.154667-57.173333-49.962667-108.074667-47.616-164.266667 0.128-7.082667 6.058667-17.749333-3.328-23.765333-10.453333a16.896 16.896 0 0 1 1.92-23.808c68.394667-58.112 137.984-61.312 208.298667 0.170666a16.840533 16.840533 0 0 1 1.621333 23.808z m84.010667-91.221333c-6.144 6.997333-16.810667 16.213333-23.808 10.069333-114.645333-100.565333-219.904-95.744-332.288 0.170667-7.082667 6.058667-17.749333-3.328-23.765334-10.453333a16.896 16.896 0 0 1 1.877334-23.808c124.586667-106.282667 248.533333-111.957333 376.405333 0.170666a16.891733 16.891733 0 0 1 1.578667 23.850667z" fill="#FFFFFF" p-id="2074"></path></svg>